<?xml version="1.0" encoding="UTF-8" standalone="no"?>
<svg
   clip-rule="evenodd"
   fill-rule="evenodd"
   height="512"
   image-rendering="optimizeQuality"
   shape-rendering="geometricPrecision"
   text-rendering="geometricPrecision"
   viewBox="0 0 1.70666 1.70666"
   width="512"
   version="1.1"
   id="svg464"
   sodipodi:docname="briefcase.svg"
   inkscape:version="1.2.2 (1:1.2.2+202212051552+b0a8486541)"
   xmlns:inkscape="http://www.inkscape.org/namespaces/inkscape"
   xmlns:sodipodi="http://sodipodi.sourceforge.net/DTD/sodipodi-0.dtd"
   xmlns="http://www.w3.org/2000/svg"
   xmlns:svg="http://www.w3.org/2000/svg">
  <defs
     id="defs468" />
  <sodipodi:namedview
     id="namedview466"
     pagecolor="#ffffff"
     bordercolor="#000000"
     borderopacity="0.25"
     inkscape:showpageshadow="2"
     inkscape:pageopacity="0.0"
     inkscape:pagecheckerboard="0"
     inkscape:deskcolor="#d1d1d1"
     showgrid="false"
     inkscape:zoom="1.7011719"
     inkscape:cx="186.92997"
     inkscape:cy="256.29392"
     inkscape:window-width="1920"
     inkscape:window-height="1007"
     inkscape:window-x="0"
     inkscape:window-y="0"
     inkscape:window-maximized="1"
     inkscape:current-layer="svg464" />
  <g
     id="Layer_x0020_1"
     style="fill:#ffffff">
    <g
       id="_330400296"
       style="fill:#ffffff">
      <path
         id="_330400944"
         d="m1.68771.590268h-1.66876c-.0104646 0-.0189528-.00872047-.0189528-.0194764 0-.0107559.00848819-.0194764.0189528-.0194764h1.66876c.0104646 0 .0189528.00872047.0189528.0194764 0 .0107638-.00848819.0194764-.0189528.0194764z"
         style="fill:#ffffff" />
      <path
         id="_330400920"
         d="m1.54549 1.66192h-1.38431c-.0888622 0-.161173-.0742835-.161173-.165606v-.974224c0-.0913346.072311-.16561.161173-.16561h1.38431c.0888622 0 .161173.0743031.161173.16561v.97424c0 .0913071-.0722874.165591-.161173.165591zm-1.38431-1.26648c-.0679449 0-.123264.056811-.123264.126654v.97424c0 .069815.0552953.126654.123264.126654l1.38431.00000787c.0679449 0 .123248-.0568386.123248-.126654v-.974248c0-.0698425-.0552953-.126654-.123248-.126654h-1.38431z"
         style="fill:#ffffff" />
      <path
         id="_330401424"
         d="m1.68295 1.4476h-1.65924c-.0104646 0-.0189528-.00872047-.0189528-.0195039 0-.010752.00851181-.0194764.0189528-.0194764l1.65927.00000787c.0104921 0 .0189843.00872441.0189843.0194803-.00002756.0107717-.00851575.0194921-.0190079.0194921z"
         style="fill:#ffffff" />
      <path
         id="_330401544"
         d="m1.13778.395437h-.56889c-.0104685 0-.0189567-.00872441-.0189567-.0194803v-.0708031c0-.0898976.0711811-.163016.158654-.163016h.289512c.0874764 0 .158654.0731181.158654.163016v.0708031c-.00002362.0107283-.00850394.0194803-.0189724.0194803zm-.549933-.0389803h.53098v-.0513031c0-.0684134-.054185-.124063-.120744-.124063h-.289504c-.0665591 0-.12074.0556496-.12074.124063l.00000787.0513031z"
         style="fill:#ffffff" />
      <path
         id="_330402024"
         d="m.39822 1.4476h-.151713c-.0104685 0-.0189567-.00872047-.0189567-.0195039v-.857307c0-.0107559.00848819-.0194764.0189567-.0194764h.151713c.0104685 0 .0189567.00872047.0189567.0194764v.857335c0 .0107559-.00848819.0194764-.0189567.0194764zm-.132732-.0389724h.113776v-.818354l-.113776-.00000787v.818362z"
         style="fill:#ffffff" />
      <path
         id="_330402120"
         d="m1.46015 1.4476h-.151713c-.0104685 0-.0189567-.00872047-.0189567-.0195039v-.857307c0-.0107559.00848819-.0194764.0189567-.0194764h.151713c.0104685 0 .0189567.00872047.0189567.0194764v.857335c0 .0107559-.00848819.0194764-.0189567.0194764zm-.132756-.0389724h.113776v-.818354l-.113776-.00000787v.818362z"
         style="fill:#ffffff" />
      <path
         id="_330403080"
         d="m.903209 1.35017h-.0989134c-.0104685 0-.0189567-.00872047-.0189567-.0194764v-.0536575c-.0258701-.00676378-.0504921-.0172795-.0734724-.0314016l-.037.0380197c-.00355118.00366535-.00837795.00570866-.0134016.00570866-.00501969 0-.00985433-.0020315-.0133976-.00570866l-.0699331-.0718543c-.00355118-.00364961-.00555512-.00861024-.00555512-.0137717 0-.00518504.00200394-.0101417.00555512-.0137913l.037-.0380197c-.0137441-.0236102-.0239843-.0489134-.0305394-.0754961l-.0522559-.00000787c-.0104685 0-.0189567-.00872047-.0189567-.0195039v-.101634c0-.0107559.00848819-.0194803.0189567-.0194803h.0522283c.00658268-.0265787.016815-.0518543.0305591-.0754764l-.0370236-.038063c-.00355512-.00364961-.00555906-.0086063-.00555906-.0137677 0-.00516142.00200394-.010126.00555906-.0137677l.0699291-.0718701c.00355118-.00365354.00837795-.0057126.0134016-.0057126.0050315 0 .00985433.00203543.0133976.0057126l.0370276.0380591c.0229803-.014122.0475748-.0246457.0734567-.0313976v-.0536575c0-.0107559.00851181-.0194803.0189528-.0194803l.0989252-.00000787c.0104685 0 .0189567.00874803.0189567.0194764v.0536614c.0258937.00675984.0504921.0172598.0734724.0313976l.0370276-.0380433c.00355118-.00364961.00837402-.00570866.0133976-.00570866.00502362 0 .00985827.0020315.0134016.00570866l.0699449.0718701c.00739764.00760236.00739764.0199488 0 .0275472l-.0370236.0380433c.0137441.0236142.0239882.0489134.0305591.0754961l.0522402.00000787c.0104921 0 .0189803.00872441.0189803.0194764v.101638c0 .0107795-.00848819.0195039-.0189803.0195039h-.0522087c-.00657874.0266063-.0167953.0518819-.0305394.0754961l.0369724.0379882c.00739764.00760236.00739764.0199724 0 .027563l-.0699449.0718583c-.00355512.00366535-.00837795.00570866-.0134016.00570866-.0050315 0-.00985433-.00205906-.0133976-.00570866l-.037-.0379921c-.0229803.014122-.0476063.0246457-.0734764.0313819v.0536575c-.00000787.0107559-.00849606.0194764-.0189646.0194764zm-.0799567-.0389803h.0610039v-.049752c0-.00930709.00641339-.0173307.0153346-.0191063.0316496-.00633858.0612756-.0190079.0881102-.037622.00750787-.00524016.0175906-.00425591.0240315.0023622l.0343425.0352874.0431457-.044311-.0343386-.0352874c-.00641732-.00661811-.00739764-.0169764-.00232283-.0247165.0181535-.0275472.0304724-.0579882.0366102-.0905354.00172835-.00916535.00953937-.0157598.0186142-.0157598l.0484291.00001181v-.0626654h-.0484488c-.00905512 0-.0168661-.00661811-.0185945-.0157559-.00616535-.0325197-.0185-.0629488-.0366378-.0905118-.00509843-.00774016-.00414567-.0180984.00229528-.0247165l.0343858-.0353031-.0431496-.0443386-.0343583.0353307c-.00641339.00659449-.0165197.0075748-.0240551.0023622-.0268071-.0186575-.0564094-.031311-.0880591-.0376457-.00892126-.00177953-.0153346-.00980315-.0153346-.019126v-.049752h-.0610039v.049752c0 .00930709-.00641732.0173307-.0153346.019126-.0316102.00633465-.0612362.0190079-.0880433.0376457-.00753543.00524016-.0176142.00425984-.0240591-.0023622l-.0343819-.0353543-.043126.0443346.0343858.0353307c.00641732.00661811.00739764.0170039.00229528.0247165-.0181378.027563-.0304685.0579921-.0366535.0904843-.00172835.00916535-.00953937.0157559-.0186102.0157559l-.0484331.00001181v.0626614l.0484331-.00000787c.00907874 0 .0168819.00659055.0186102.0157559.00616535.0325197.0185.0629488.0366378.0905118.00509843.00774016.00411811.0180709-.00229528.024689l-.0343583.0353307.043122.044311.0343583-.0353031c.00641732-.00659449.0164961-.00760236.0240315-.0023622.0268071.0186378.056437.031311.0880866.037622.00891732.00177559.0153346.00981496.0153346.019122v.0497795z"
         style="fill:#ffffff" />
      <path
         id="_330403056"
         d="m.85374 1.15639c-.0836929 0-.151756-.0699567-.151756-.155961 0-.0860039.0680827-.155957.151756-.155957.0836732 0 .151783.0699528.151783.155957 0 .0860039-.0680827.155961-.151783.155961zm0-.272929c-.0627598 0-.113846.0524685-.113846.116976 0 .0645118.0510866.11698.113846.11698.0627835 0 .11387-.0524685.11387-.11698 0-.0645079-.0510866-.116976-.11387-.116976z"
         style="fill:#ffffff" />
      <path
         id="_330401208"
         d="m1.40326.278528c-.0522913 0-.0948228-.0436969-.0948228-.0974291 0-.0537283.0425315-.0974291.0948228-.0974291.0522638 0 .0948031.0437008.0948031.0974291 0 .0537323-.0425315.0974291-.0948031.0974291zm0-.155886c-.0313858 0-.0568937.0262362-.0568937.0584567s.0255079.0584606.0568937.0584606c.0313543 0 .0568898-.0262402.0568898-.0584606 0-.0322205-.0255354-.0584567-.0568898-.0584567z"
         style="fill:#ffffff" />
      <path
         id="_330402096"
         d="m.265488.3175c-.0731811 0-.132732-.061189-.132732-.136382 0-.0751969.0595512-.136386.132732-.136386.0731811 0 .132732.061189.132732.136386 0 .0751929-.0595512.136382-.132732.136382zm0-.233811c-.0522638 0-.0948189.0436969-.0948189.0974291 0 .0537283.0425276.0974291.0948189.0974291s.0948228-.0437008.0948228-.0974291c0-.0537323-.0425551-.0974291-.0948228-.0974291z"
         style="fill:#ffffff" />
    </g>
  </g>
</svg>
