<?xml version="1.0" encoding="UTF-8" standalone="no"?>
<!-- Created with Inkscape (http://www.inkscape.org/) -->

<svg
   version="1.1"
   id="svg4929"
   xml:space="preserve"
   width="682.66669"
   height="682.66669"
   viewBox="0 0 682.66669 682.66669"
   sodipodi:docname="cv.svg"
   inkscape:version="1.2.2 (1:1.2.2+202212051552+b0a8486541)"
   xmlns:inkscape="http://www.inkscape.org/namespaces/inkscape"
   xmlns:sodipodi="http://sodipodi.sourceforge.net/DTD/sodipodi-0.dtd"
   xmlns="http://www.w3.org/2000/svg"
   xmlns:svg="http://www.w3.org/2000/svg"><sodipodi:namedview
     id="namedview630"
     pagecolor="#ffffff"
     bordercolor="#000000"
     borderopacity="0.25"
     inkscape:showpageshadow="2"
     inkscape:pageopacity="0.0"
     inkscape:pagecheckerboard="0"
     inkscape:deskcolor="#d1d1d1"
     showgrid="false"
     inkscape:zoom="0.63793943"
     inkscape:cx="225.72676"
     inkscape:cy="158.32224"
     inkscape:window-width="1920"
     inkscape:window-height="1007"
     inkscape:window-x="0"
     inkscape:window-y="0"
     inkscape:window-maximized="1"
     inkscape:current-layer="svg4929" /><defs
     id="defs4933"><clipPath
       clipPathUnits="userSpaceOnUse"
       id="clipPath4943"><path
         d="M 0,512 H 512 V 0 H 0 Z"
         id="path4941" /></clipPath></defs><g
     id="g4935"
     transform="matrix(1.3333333,0,0,-1.3333333,0,682.66667)"
     style="stroke:#333333;stroke-opacity:1"><g
       id="g4937"
       style="stroke:#333333;stroke-opacity:1"><g
         id="g4939"
         clip-path="url(#clipPath4943)"
         style="stroke:#333333;stroke-opacity:1"><g
           id="g4945"
           transform="translate(327.02,420.8047)"
           style="stroke:#333333;stroke-opacity:1"><path
             d="m 0,0 c -4.778,3.228 -10.538,5.112 -16.738,5.112 -16.533,0 -29.936,-13.402 -29.936,-29.935 0,-16.534 13.403,-29.937 29.936,-29.937 6.715,0 12.238,2.211 16.43,5.945 0.868,0.772 1.678,1.609 2.43,2.506"
             style="fill:none;stroke:#333333;stroke-width:15;stroke-linecap:round;stroke-linejoin:round;stroke-miterlimit:10;stroke-dasharray:none;stroke-opacity:1"
             id="path4947" /></g><g
           id="g4949"
           transform="translate(363.2256,425.917)"
           style="stroke:#333333;stroke-opacity:1"><path
             d="m 0,0 20.47,-58.974 c 0.429,-1.207 2.141,-1.195 2.553,0.018 l 19.549,58.847"
             style="fill:none;stroke:#333333;stroke-width:15;stroke-linecap:round;stroke-linejoin:round;stroke-miterlimit:10;stroke-dasharray:none;stroke-opacity:1"
             id="path4951" /></g><g
           id="g4953"
           transform="translate(270.2793,260.6455)"
           style="stroke:#333333;stroke-opacity:1"><path
             d="M 0,0 H 140.707"
             style="fill:none;stroke:#333333;stroke-width:15;stroke-linecap:round;stroke-linejoin:round;stroke-miterlimit:10;stroke-dasharray:none;stroke-opacity:1"
             id="path4955" /></g><g
           id="g4957"
           transform="translate(270.2793,168.6055)"
           style="stroke:#333333;stroke-opacity:1"><path
             d="M 0,0 H 140.707"
             style="fill:none;stroke:#333333;stroke-width:15;stroke-linecap:round;stroke-linejoin:round;stroke-miterlimit:10;stroke-dasharray:none;stroke-opacity:1"
             id="path4959" /></g><g
           id="g4961"
           transform="translate(270.2793,214.626)"
           style="stroke:#333333;stroke-opacity:1"><path
             d="M 0,0 H 70.353"
             style="fill:none;stroke:#333333;stroke-width:15;stroke-linecap:round;stroke-linejoin:round;stroke-miterlimit:10;stroke-dasharray:none;stroke-opacity:1"
             id="path4963" /></g><g
           id="g4965"
           transform="translate(270.2793,168.6055)"
           style="stroke:#333333;stroke-opacity:1"><path
             d="M 0,0 H 140.707"
             style="fill:none;stroke:#333333;stroke-width:15;stroke-linecap:round;stroke-linejoin:round;stroke-miterlimit:10;stroke-dasharray:none;stroke-opacity:1"
             id="path4967" /></g><g
           id="g4969"
           transform="translate(270.2793,122.585)"
           style="stroke:#333333;stroke-opacity:1"><path
             d="M 0,0 H 140.707"
             style="fill:none;stroke:#333333;stroke-width:15;stroke-linecap:round;stroke-linejoin:round;stroke-miterlimit:10;stroke-dasharray:none;stroke-opacity:1"
             id="path4971" /></g><g
           id="g4973"
           transform="translate(270.2793,75.3369)"
           style="stroke:#333333;stroke-opacity:1"><path
             d="M 0,0 H 70.353"
             style="fill:none;stroke:#333333;stroke-width:15;stroke-linecap:round;stroke-linejoin:round;stroke-miterlimit:10;stroke-dasharray:none;stroke-opacity:1"
             id="path4975" /></g><g
           id="g4977"
           transform="translate(270.2793,306.666)"
           style="stroke:#333333;stroke-opacity:1"><path
             d="M 0,0 H 140.707"
             style="fill:none;stroke:#333333;stroke-width:15;stroke-linecap:round;stroke-linejoin:round;stroke-miterlimit:10;stroke-dasharray:none;stroke-opacity:1"
             id="path4979" /></g><g
           id="g4981"
           transform="translate(450.9829,379.2412)"
           style="stroke:#333333;stroke-opacity:1"><path
             d="m 0,0 v -350.448 c 0,-11.714 -9.496,-21.21 -21.209,-21.21 h -347.417 c -11.714,0 -21.21,9.496 -21.21,21.21 v 454.58 c 0,11.714 9.496,21.21 21.21,21.21 H -21.209 C -9.496,125.342 0,115.846 0,104.132 V 35.074"
             style="fill:none;stroke:#333333;stroke-width:15;stroke-linecap:round;stroke-linejoin:round;stroke-miterlimit:10;stroke-dasharray:none;stroke-opacity:1"
             id="path4983" /></g><g
           id="g4985"
           transform="translate(231.0566,504.583)"
           style="stroke:#333333;stroke-opacity:1"><path
             d="m 0,0 h -148.7 c -11.714,0 -21.21,-9.496 -21.21,-21.21 v -454.581 c 0,-11.713 9.496,-21.209 21.21,-21.209 H 0 Z"
             style="fill:none;stroke:#333333;stroke-width:15;stroke-linecap:round;stroke-linejoin:round;stroke-miterlimit:10;stroke-dasharray:none;stroke-opacity:1"
             id="path4987" /></g><g
           id="g4989"
           transform="translate(198.1782,395.9814)"
           style="stroke:#333333;stroke-opacity:1"><path
             d="m 0,0 c 0,-28.709 -23.272,-51.981 -51.981,-51.981 -28.708,0 -51.981,23.272 -51.981,51.981 0,28.708 23.273,51.98 51.981,51.98 C -23.272,51.98 0,28.708 0,0 Z"
             style="fill:none;stroke:#333333;stroke-width:15;stroke-linecap:round;stroke-linejoin:round;stroke-miterlimit:10;stroke-dasharray:none;stroke-opacity:1"
             id="path4991" /></g><g
           id="g4993"
           transform="translate(189.668,234.3633)"
           style="stroke:#333333;stroke-opacity:1"><path
             d="m 0,0 h -86.941 c -4.806,0 -8.702,3.896 -8.702,8.701 v 21.435 c 0,4.805 3.896,8.701 8.702,8.701 H 0 c 4.806,0 8.701,-3.896 8.701,-8.701 V 8.701 C 8.701,3.896 4.806,0 0,0 Z"
             style="fill:none;stroke:#333333;stroke-width:15;stroke-linecap:round;stroke-linejoin:round;stroke-miterlimit:10;stroke-dasharray:none;stroke-opacity:1"
             id="path4995" /></g><g
           id="g4997"
           transform="translate(110.2969,154.8496)"
           style="stroke:#333333;stroke-opacity:1"><path
             d="m 0,0 h -7.57 c -4.806,0 -8.701,3.896 -8.701,8.702 v 21.434 c 0,4.805 3.895,8.702 8.701,8.702 h 86.941 c 4.806,0 8.701,-3.897 8.701,-8.702 V 8.702 C 88.072,3.896 84.177,0 79.371,0 H 35.074"
             style="fill:none;stroke:#333333;stroke-width:15;stroke-linecap:round;stroke-linejoin:round;stroke-miterlimit:10;stroke-dasharray:none;stroke-opacity:1"
             id="path4999" /></g><g
           id="g5001"
           transform="translate(189.668,75.3369)"
           style="stroke:#333333;stroke-opacity:1"><path
             d="m 0,0 h -86.941 c -4.806,0 -8.702,3.896 -8.702,8.701 v 21.435 c 0,4.805 3.896,8.701 8.702,8.701 H 0 c 4.806,0 8.701,-3.896 8.701,-8.701 V 8.701 C 8.701,3.896 4.806,0 0,0 Z"
             style="fill:none;stroke:#333333;stroke-width:15;stroke-linecap:round;stroke-linejoin:round;stroke-miterlimit:10;stroke-dasharray:none;stroke-opacity:1"
             id="path5003" /></g><g
           id="g5005"
           transform="translate(181.2153,357.5674)"
           style="stroke:#333333;stroke-opacity:1"><path
             d="M 0,0 C -3.505,11.855 -12.862,21.197 -24.727,24.678"
             style="fill:none;stroke:#333333;stroke-width:15;stroke-linecap:round;stroke-linejoin:round;stroke-miterlimit:10;stroke-dasharray:none;stroke-opacity:1"
             id="path5007" /></g><g
           id="g5009"
           transform="translate(135.9058,382.2451)"
           style="stroke:#333333;stroke-opacity:1"><path
             d="M 0,0 C -11.865,-3.48 -21.221,-12.822 -24.727,-24.678"
             style="fill:none;stroke:#333333;stroke-width:15;stroke-linecap:round;stroke-linejoin:round;stroke-miterlimit:10;stroke-dasharray:none;stroke-opacity:1"
             id="path5011" /></g><g
           id="g5013"
           transform="translate(164.5908,397.4912)"
           style="stroke:#333333;stroke-opacity:1"><path
             d="m 0,0 c 0,-10.158 -8.235,-18.393 -18.394,-18.393 -10.158,0 -18.393,8.235 -18.393,18.393 0,10.159 8.235,18.394 18.393,18.394 C -8.235,18.394 0,10.159 0,0 Z"
             style="fill:none;stroke:#333333;stroke-width:15;stroke-linecap:round;stroke-linejoin:round;stroke-miterlimit:10;stroke-dasharray:none;stroke-opacity:1"
             id="path5015" /></g></g></g></g></svg>
