<?xml version="1.0" encoding="UTF-8" standalone="no"?>
<svg
   width="1200pt"
   height="1200pt"
   version="1.1"
   viewBox="0 0 1200 1200"
   id="svg2213"
   sodipodi:docname="lifetime.svg"
   inkscape:version="1.2.2 (1:1.2.2+202212051552+b0a8486541)"
   xmlns:inkscape="http://www.inkscape.org/namespaces/inkscape"
   xmlns:sodipodi="http://sodipodi.sourceforge.net/DTD/sodipodi-0.dtd"
   xmlns="http://www.w3.org/2000/svg"
   xmlns:svg="http://www.w3.org/2000/svg">
  <defs
     id="defs2217" />
  <sodipodi:namedview
     id="namedview2215"
     pagecolor="#ffffff"
     bordercolor="#000000"
     borderopacity="0.25"
     inkscape:showpageshadow="2"
     inkscape:pageopacity="0.0"
     inkscape:pagecheckerboard="0"
     inkscape:deskcolor="#d1d1d1"
     inkscape:document-units="pt"
     showgrid="false"
     inkscape:zoom="0.2721875"
     inkscape:cx="-110.21814"
     inkscape:cy="778.87486"
     inkscape:window-width="1920"
     inkscape:window-height="1007"
     inkscape:window-x="0"
     inkscape:window-y="0"
     inkscape:window-maximized="1"
     inkscape:current-layer="svg2213"
     showguides="true">
    <sodipodi:guide
       position="601.898,587.602"
       orientation="0,-1"
       id="guide1707"
       inkscape:locked="false" />
    <sodipodi:guide
       position="600.68886,445.00574"
       orientation="1,0"
       id="guide1709"
       inkscape:locked="false" />
  </sodipodi:namedview>
  <g
     fill="#333"
     id="g2211"
     style="fill:#333333;stroke-width:12;stroke-dasharray:none;stroke:#333333;stroke-opacity:1;fill-opacity:1">
    <path
       d="m600 160.8c-242.2 0-439.2 197-439.2 439.2 0 9.8008 7.8008 17.602 17.602 17.602 9.8008 0 17.602-7.8008 17.602-17.602-0.20312-222.8 181.2-404.2 404-404.2s404.2 181.4 404.2 404.2-181.4 404.2-404.2 404.2c-114.4 0-220.6-47.199-297-130.2h95.398c9.8008 0 17.602-7.8008 17.602-17.602 0-9.8008-7.8008-17.602-17.602-17.602h-133.2c-0.80078 0-1.3984 0.39844-2.1992 0.39844-1.1992 0.19922-2.1992 0.39844-3.3984 0.60156-1.1992 0.39844-2.1992 1-3.1992 1.6016-0.60156 0.39844-1.3984 0.39844-2 1-0.39844 0.19922-0.39844 0.60156-0.80078 0.80078-0.80078 0.80078-1.6016 1.6016-2.1992 2.6016-0.80078 1-1.3984 1.8008-2 2.8008-0.39844 0.80078-0.60156 1.8008-1 2.8008-0.39844 1.1992-0.80078 2.6016-0.80078 3.8008 0 0.39844-0.19922 0.60156-0.19922 1v133.2c0 9.8008 7.8008 17.602 17.602 17.602 9.8008 0 17.602-7.8008 17.602-17.602v-85.801c82.602 86.602 195.8 135.4 317.2 135.4 242.2 0 439.2-197 439.2-439.2 0.19531-242-196.8-439-439-439z"
       id="path2207"
       style="fill:#333333;stroke-width:12;stroke-dasharray:none;stroke:#333333;stroke-opacity:1;fill-opacity:1" />
    <path
       d="m 435.3,641.6 h 175.2 c 9.8008,0 17.602,-7.8008 17.602,-17.602 v -276.8 c 0,-9.8008 -7.8008,-17.602 -17.602,-17.602 -9.8012,0 -17.602,7.8008 -17.602,17.602 v 259.2 h -157.6 c -9.8008,0 -17.602,7.8008 -17.602,17.602 0.004,9.8008 7.8047,17.602 17.605,17.602 z"
       id="path2209"
       style="fill:#333333;stroke:#333333;stroke-width:12;stroke-dasharray:none;stroke-opacity:1;fill-opacity:1" />
  </g>
</svg>
