<?xml version="1.0" encoding="UTF-8" standalone="no"?>
<svg
   clip-rule="evenodd"
   fill-rule="evenodd"
   height="512"
   image-rendering="optimizeQuality"
   shape-rendering="geometricPrecision"
   text-rendering="geometricPrecision"
   viewBox="0 0 1.70666 1.70666"
   width="512"
   version="1.1"
   id="svg329"
   sodipodi:docname="project.svg"
   inkscape:version="1.2.2 (1:1.2.2+202212051552+b0a8486541)"
   xmlns:inkscape="http://www.inkscape.org/namespaces/inkscape"
   xmlns:sodipodi="http://sodipodi.sourceforge.net/DTD/sodipodi-0.dtd"
   xmlns="http://www.w3.org/2000/svg"
   xmlns:svg="http://www.w3.org/2000/svg">
  <defs
     id="defs333" />
  <sodipodi:namedview
     id="namedview331"
     pagecolor="#ffffff"
     bordercolor="#000000"
     borderopacity="0.25"
     inkscape:showpageshadow="2"
     inkscape:pageopacity="0.0"
     inkscape:pagecheckerboard="0"
     inkscape:deskcolor="#d1d1d1"
     showgrid="false"
     inkscape:zoom="1.7011719"
     inkscape:cx="118.74167"
     inkscape:cy="256.88174"
     inkscape:window-width="1920"
     inkscape:window-height="1007"
     inkscape:window-x="0"
     inkscape:window-y="0"
     inkscape:window-maximized="1"
     inkscape:current-layer="svg329" />
  <g
     id="Layer_x0020_1"
     style="fill:#333333;fill-opacity:1">
    <g
       id="_401640640"
       style="fill:#333333;fill-opacity:1">
      <g
         id="g268"
         style="fill:#333333;fill-opacity:1">
        <path
           id="_401643208"
           d="m1.36627 1.42848h-1.25943c-.0588346 0-.106709-.0478661-.106709-.106705v-.936894c0-.0588346.0478661-.106705.106709-.106705l1.25944.00000394c.0588346 0 .106717.0478661.106717.106709v.359657c0 .0110394-.0089685.0199961-.0199961.0199961h-.0201575l-.00444882.0416614c-.00087402.00830315-.00684252.0151969-.0149409.0172638-.0146654.00373622-.0287205.00955118-.0417992.0173307-.00719291.00429134-.0162756.00361024-.0227717-.0016378l-.0326181-.0263307-.0285118.0285079.0263307.0326181c.00525197.0065.00591732.0155827.0016378.0227756-.00777559.0130787-.0135906.0271496-.0173307.0417992-.00205512.00809843-.00895669.014063-.0172598.0149409l-.0416614.00444488v.040315l.0416614.00444488c.0083189.00087402.0152047.00683071.0172598.0149409.00374803.0146654.00957087.0287205.0173307.0417992.00427953.00719685.00361417.0162756-.0016378.0227717l-.0263307.032622.0285118.0285079.0326181-.0263307c.00648819-.00527559.0155945-.00590157.0227717-.0016378.0130551.00775984.0271181.0135945.0417992.0173307.00811024.00205512.0140669.00895669.0149409.0172598l.00444882.0416457.0201575-.00000787c.0110394 0 .0199961.0089685.0199961.0199961v.110201c-.00001181.0588386-.0478819.106705-.106732.106705zm-1.25943-1.1103c-.0367874 0-.0667126.0299252-.0667126.0667126v.93689c0 .0367717.0299252.0666969.0667126.0666969l1.25944-.00000394c.0367874 0 .0667126-.0299094.0667126-.0666969v-.0901929l-.0181496.00000394c-.0102165 0-.0187992-.00772047-.0198858-.0178858l-.00492913-.0462441c-.00905118-.00301181-.0178937-.00666535-.0264409-.0109606l-.0362008.0292205c-.00794094.00642913-.0194409.0058189-.0267047-.00141732l-.0539252-.0539331c-.00723228-.00723228-.00783071-.0187638-.00141732-.0267047l.0292205-.036189c-.00429528-.00855512-.00794094-.0173858-.0109606-.0264409l-.046252-.00492913c-.0101693-.00107874-.0178898-.00964961-.0178898-.0198858v-.0762795c0-.0102205.00772047-.0187992.0178898-.0198858l.046252-.00492913c.00301575-.00905512.00666535-.0178858.0109606-.0264409l-.0292205-.0362047c-.00642913-.00795669-.0058189-.0194646.00141732-.026689l.0539252-.0539331c.00724803-.00723228.0187717-.00783071.0267047-.00143307l.0362008.0292205c.00853937-.00430315.0173898-.00795669.0264409-.0109685l.00492913-.0462441c.00108268-.0101693.00965354-.017874.0198858-.017874l.0181496.00000787v-.339665c0-.0367835-.0299094-.0667126-.0667126-.0667126l-1.25944.00000787v-.00001575z"
           fill="rgb(0,0,0)"
           style="fill:#333333;fill-opacity:1" />
      </g>
      <g
         id="g271"
         style="fill:#333333;fill-opacity:1">
        <path
           id="_401642800"
           d="m1.453.587047h-1.43286c-.0110394 0-.02-.00896063-.02-.0199961 0-.0110394.00896063-.02.02-.02l1.43286.00000787c.0110394 0 .0199961.00895669.0199961.0199961 0 .0110354-.00895669.0199921-.0199961.0199921z"
           fill="rgb(0,0,0)"
           style="fill:#333333;fill-opacity:1" />
      </g>
      <g
         id="g274"
         style="fill:#333333;fill-opacity:1">
        <path
           id="_401642896"
           d="m.17687.521421c-.0489606 0-.0887874-.0398268-.0887874-.0887913 0-.0489606.0398268-.0887874.0887874-.0887874.0489646 0 .0887874.0398268.0887874.0887874 0 .0489646-.0398228.0887913-.0887874.0887913zm0-.137598c-.0269134 0-.0487913.0218937-.0487913.0487913 0 .0269016.0218937.0487953.0487913.0487953.0269016 0 .0487953-.0218937.0487953-.0487953 0-.0268976-.0218937-.0487913-.0487953-.0487913z"
           fill="rgb(0,0,0)"
           style="fill:#333333;fill-opacity:1" />
      </g>
      <g
         id="g277"
         style="fill:#333333;fill-opacity:1">
        <path
           id="_401643112"
           d="m.395858.521421c-.0489646 0-.0887874-.0398268-.0887874-.0887913 0-.0489606.0398228-.0887874.0887874-.0887874.0489606 0 .0887874.0398268.0887874.0887874 0 .0489646-.0398189.0887913-.0887874.0887913zm0-.137598c-.0269134 0-.0487953.0218937-.0487953.0487913 0 .0269016.0218976.0487953.0487953.0487953.0268976 0 .0487953-.0218937.0487953-.0487953 0-.0268976-.0218976-.0487913-.0487953-.0487913z"
           fill="rgb(0,0,0)"
           style="fill:#333333;fill-opacity:1" />
      </g>
      <g
         id="g280"
         style="fill:#333333;fill-opacity:1">
        <path
           id="_401642728"
           d="m.614831.521421c-.0489488 0-.0887874-.0398268-.0887874-.0887913 0-.0489606.0398268-.0887874.0887874-.0887874.0489646 0 .0887913.0398268.0887913.0887874 0 .0489646-.0398228.0887913-.0887913.0887913zm0-.137598c-.0269134 0-.0487913.0218937-.0487913.0487913 0 .0269016.0218858.0487953.0487913.0487953.0269094 0 .0487953-.0218937.0487953-.0487953 0-.0268976-.021878-.0487913-.0487953-.0487913z"
           fill="rgb(0,0,0)"
           style="fill:#333333;fill-opacity:1" />
      </g>
      <g
         id="g283"
         style="fill:#333333;fill-opacity:1">
        <path
           id="_401642272"
           d="m1.29262.49815h-.448618c-.0110354 0-.0199961-.00896063-.0199961-.02v-.0910787c0-.0110394.00896063-.0199961.0199961-.0199961h.448618c.0110354 0 .0199961.00895669.0199961.0199961v.0910787c0 .0110551-.00896063.02-.0199961.02zm-.428618-.0399961h.408622v-.0510866h-.408622z"
           fill="rgb(0,0,0)"
           style="fill:#333333;fill-opacity:1" />
      </g>
      <g
         id="g286"
         style="fill:#333333;fill-opacity:1">
        <path
           id="_401641744"
           d="m1.2036 1.31515h-.934075c-.0110394 0-.0199961-.0089685-.0199961-.0199961s.00895669-.0199961.0199961-.0199961h.934075c.0110354 0 .0199961.0089685.0199961.0199961s-.00896063.0199961-.0199961.0199961z"
           fill="rgb(0,0,0)"
           style="fill:#333333;fill-opacity:1" />
      </g>
      <g
         id="g289"
         style="fill:#333333;fill-opacity:1">
        <path
           id="_401641816"
           d="m.606445 1.31515h-.260232c-.0110394 0-.0199961-.0089685-.0199961-.0199961v-.291646c0-.0110354.00895669-.0199961.0199961-.0199961h.260232c.0110394 0 .0199961.0089685.0199961.0199961v.29163c0 .0110433-.00895276.0200118-.0199961.0200118zm-.240236-.0400079h.22024v-.251626l-.22024.00000394v.251622z"
           fill="rgb(0,0,0)"
           style="fill:#333333;fill-opacity:1" />
      </g>
      <g
         id="g292"
         style="fill:#333333;fill-opacity:1">
        <path
           id="_401642200"
           d="m.866669 1.31515h-.260224c-.0110354 0-.0199961-.0089685-.0199961-.0199961v-.41726c0-.0110394.00896063-.02.0199961-.02h.260224c.0110354 0 .0199961.00896063.0199961.02v.41726c0 .0110276-.00896063.0199961-.0199961.0199961zm-.240228-.0400079h.220232v-.377252h-.220232z"
           fill="rgb(0,0,0)"
           style="fill:#333333;fill-opacity:1" />
      </g>
      <g
         id="g295"
         style="fill:#333333;fill-opacity:1">
        <path
           id="_401642008"
           d="m1.1269 1.31515h-.260232c-.0110394 0-.0199961-.0089685-.0199961-.0199961v-.54739c0-.0110394.00895669-.0199961.0199961-.0199961h.260232c.0110354 0 .0199961.00895669.0199961.0199961v.547374c.00001181.0110433-.00896063.0200118-.0199961.0200118zm-.240236-.0400079h.220224v-.507382h-.220224z"
           fill="rgb(0,0,0)"
           style="fill:#333333;fill-opacity:1" />
      </g>
      <g
         id="g298"
         style="fill:#333333;fill-opacity:1">
        <path
           id="_401642032"
           d="m1.49113 1.23159h-.0762756c-.0102165 0-.0187992-.00772047-.0198858-.0178858l-.00492913-.0462441c-.00905118-.00301181-.0178937-.00666535-.0264252-.0109606l-.0362008.0292205c-.00794094.00642913-.0194567.0058189-.0267047-.00141732l-.0539488-.0539331c-.00723228-.00723228-.00783071-.0187638-.00141732-.0267047l.0292165-.0362047c-.00429134-.00853937-.00794094-.0173701-.0109567-.0264252l-.0462559-.00492913c-.0101654-.00107874-.0178858-.00964961-.0178858-.0198858v-.0762795c0-.0102205.00772047-.0187992.0178858-.0198858l.0462559-.00492913c.00301181-.00905512.00666535-.0178976.0109567-.0264409l-.0292165-.036189c-.00642913-.00795669-.00582283-.0194646.00141732-.0267047l.0539488-.0539331c.00724803-.00723228.0187717-.00783071.0267047-.00141732l.036185.0292205c.00853937-.00429528.0173898-.00795669.0264409-.0109685l.00492913-.0462441c.00108268-.0101693.00965354-.017874.0198858-.017874l.0762756.00000787c.0102205 0 .0187992.00770472.0198858.0178701l.00492913.0462441c.00905512.00301181.0178976.0066811.0264409.0109685l.036189-.0292165c.00792913-.00641339.0194409-.00580709.0267047.00141732l.0539488.0539331c.00723228.00723228.00783071.0187598.00141732.0267008l-.0292205.036189c.00429528.00853937.00794094.0173898.0109606.0264409l.0462559.00492913c.0101654.00108268.0178858.00965354.0178858.0198858v.0762835c0 .0102165-.00772047.0187992-.0178858.0198858l-.0462559.0049252c-.00301181.00905512-.00666535.0178898-.0109606.0264291l.0292205.0362008c.00642913.00794094.0058189.0194685-.00141732.0267047l-.0539488.0539331c-.00724803.00723228-.0187638.00784646-.0267047.00141732l-.036189-.0292165c-.00853937.00429134-.0173701.00794094-.0264409.0109567l-.00492913.0462441c-.00109449.0101732-.00966535.0178819-.0198858.0178819zm-.0583071-.0400079h.040311l.00444488-.0416457c.00087795-.0083189.00683465-.0151969.0149291-.0172638.0147205-.00376378.0287717-.00958268.041811-.0173307.00719685-.00425197.0162913-.00361024.0227756.0016378l.0326181.0263307.0285236-.0285079-.0263307-.0326339c-.00526378-.0065-.00591339-.0155827-.0016378-.0227756.00777953-.0130669.0135945-.0271339.0173307-.0417835.00205906-.00809843.00896063-.014063.0172638-.0149409l.0416614-.00444488v-.040315l-.0416614-.00444488c-.0083189-.00087402-.0152047-.00684252-.0172638-.0149409-.00374803-.0146811-.00956693-.0287283-.0173307-.0417992-.00427559-.00719685-.00361024-.0162756.0016378-.0227717l.0263307-.0326181-.0285236-.0285118-.0326181.0263307c-.00651575.00524803-.0155945.00588976-.0227756.0016378-.0130512-.00775984-.0271181-.0135945-.0417953-.0173307-.00809843-.00206693-.0140669-.00895669-.0149449-.0172598l-.00444488-.0416614-.040311.00000787-.00444882.0416614c-.00087402.00830315-.00684252.0151969-.0149409.0172638-.0146811.00373622-.0287283.00956693-.0417992.0173307-.00719291.00429134-.0162756.00361024-.0227717-.0016378l-.0326181-.0263307-.0285276.0285079.0263307.0326181c.00526772.0065.00591732.0155827.0016378.0227756-.00775984.0130512-.0135906.0271181-.0173307.0417992-.00205512.00809843-.00895669.014063-.0172598.0149409l-.0416614.00444488v.040315l.0416614.00444488c.0083189.00087402.0152047.00683071.0172598.0149409.00374803.0146654.00957087.0287205.0173307.0417835.00427953.00719685.00362992.0162756-.0016378.0227717l-.0263307.0326378.0285276.0285079.0326339-.0263307c.00648819-.00527559.0155827-.00591732.0227874-.00162992.0130394.00774803.0270945.0135866.0417717.017315.00809843.00205906.0140669.00896063.0149449.0172638l.00444094.0416417z"
           fill="rgb(0,0,0)"
           style="fill:#333333;fill-opacity:1" />
      </g>
      <g
         id="g301"
         style="fill:#333333;fill-opacity:1">
        <path
           id="_401641768"
           d="m1.453 1.09606c-.0650669 0-.117992-.0529331-.117992-.117992 0-.065063.0529331-.117996.117992-.117996.0650591 0 .11798.0529173.11798.117996 0 .0650748-.052937.117992-.11798.117992zm0-.19598c-.0430039 0-.0779843.0349961-.0779843.0779882 0 .0429882.0349961.0779843.0779843.0779843.0429921 0 .0779724-.0349961.0779724-.0779843 0-.0429921-.0349803-.0779882-.0779724-.0779882z"
           fill="rgb(0,0,0)"
           style="fill:#333333;fill-opacity:1" />
      </g>
      <g
         id="g304"
         style="fill:#333333;fill-opacity:1">
        <path
           id="_401641792"
           d="m.473386.70461h-.234472c-.0110394 0-.0199961-.00895669-.0199961-.0199961 0-.0110354.00895669-.0199961.0199961-.0199961h.234472c.0110394 0 .0199961.00896063.0199961.0199961 0 .0110394-.00894094.0199961-.0199961.0199961zm-.308984 0h-.0393701c-.0110354 0-.0199961-.00895669-.0199961-.0199961 0-.0110354.00896063-.0199961.0199961-.0199961h.0393701c.0110354 0 .0199961.00896063.0199961.0199961 0 .0110394-.00896063.0199961-.0199961.0199961z"
           fill="rgb(0,0,0)"
           style="fill:#333333;fill-opacity:1" />
      </g>
      <g
         id="g307"
         style="fill:#333333;fill-opacity:1">
        <path
           id="_401641288"
           d="m.47337.778783h-.0393661c-.0110394 0-.0199961-.00896063-.0199961-.02 0-.0110354.00895669-.0199961.0199961-.0199961h.0393661c.0110394 0 .0199961.00896063.0199961.0199961 0 .0110394-.00894094.02-.0199961.02zm-.113878 0h-.234476c-.0110354 0-.0199961-.00896063-.0199961-.02 0-.0110354.00896063-.0199961.0199961-.0199961h.234476c.0110354 0 .0199961.00896063.0199961.0199961 0 .0110394-.00896063.02-.0199961.02z"
           fill="rgb(0,0,0)"
           style="fill:#333333;fill-opacity:1" />
      </g>
      <g
         id="g310"
         style="fill:#333333;fill-opacity:1">
        <path
           id="_401641672"
           d="m.473386.852965h-.234472c-.0110394 0-.0199961-.00896063-.0199961-.0199961 0-.0110394.00895669-.02.0199961-.02h.234472c.0110394 0 .0199961.00896063.0199961.02 0 .0110354-.00894094.0199961-.0199961.0199961zm-.308984 0h-.0393701c-.0110354 0-.0199961-.00896063-.0199961-.0199961 0-.0110394.00896063-.02.0199961-.02h.0393701c.0110354 0 .0199961.00896063.0199961.02 0 .0110354-.00896063.0199961-.0199961.0199961z"
           fill="rgb(0,0,0)"
           style="fill:#333333;fill-opacity:1" />
      </g>
      <g
         id="g313"
         style="fill:#333333;fill-opacity:1">
        <path
           id="_401641048"
           d="m.47337.927146h-.0393661c-.0110394 0-.0199961-.00897244-.0199961-.0199961 0-.0110276.00895669-.0199961.0199961-.0199961h.0393661c.0110394 0 .0199961.0089685.0199961.0199961 0 .0110236-.00894094.0199961-.0199961.0199961zm-.113878 0h-.234476c-.0110354 0-.0199961-.00897244-.0199961-.0199961 0-.0110276.00896063-.0199961.0199961-.0199961h.234476c.0110354 0 .0199961.0089685.0199961.0199961 0 .0110236-.00896063.0199961-.0199961.0199961z"
           fill="rgb(0,0,0)"
           style="fill:#333333;fill-opacity:1" />
      </g>
      <g
         id="g316"
         style="fill:#333333;fill-opacity:1">
        <path
           id="_401641432"
           d="m.723386.815283c-.0312165 0-.0565984-.0253976-.0565984-.0565984 0-.0110354.00895669-.0199961.0199961-.0199961.0110394 0 .0199961.00896063.0199961.0199961 0 .00916535.00745669.0166063.0166063.0166063s.0166063-.00745669.0166063-.0166063c0-.0107205-.00079134-.0122913-.0212441-.0171496-.0181654-.00433858-.0519764-.012374-.0519764-.0560591 0-.0312205.0253976-.0565984.0565984-.0565984s.0565984.0253937.0565984.0565984c0 .0110354-.00895669.0199961-.0199961.0199961-.0110354 0-.0199961-.00896063-.0199961-.0199961 0-.00916535-.00745669-.0166063-.0166063-.0166063s-.0166063.00745669-.0166063.0166063c0 .0107205.00079134.0122913.021248.0171496.0181614.00433465.0519724.0123701.0519724.0560591 0 .0312165-.0253976.0565984-.0565984.0565984z"
           fill="rgb(0,0,0)"
           style="fill:#333333;fill-opacity:1" />
      </g>
      <g
         id="g319"
         style="fill:#333333;fill-opacity:1">
        <path
           id="_401641216"
           d="m.723386.668854c-.0110354 0-.0199961-.00896063-.0199961-.0199961v-.0194567c0-.0110394.00896063-.0199961.0199961-.0199961.0110394 0 .0199961.00895669.0199961.0199961v.0194567c0 .0110512-.00895669.0199961-.0199961.0199961z"
           fill="rgb(0,0,0)"
           style="fill:#333333;fill-opacity:1" />
      </g>
      <g
         id="g322"
         style="fill:#333333;fill-opacity:1">
        <path
           id="_401641168"
           d="m.723386.83474c-.0110354 0-.0199961-.00895669-.0199961-.0199961v-.0194567c0-.0110354.00896063-.0199961.0199961-.0199961.0110394 0 .0199961.00896063.0199961.0199961v.0194567c0 .0110551-.00895669.0199961-.0199961.0199961z"
           fill="rgb(0,0,0)"
           style="fill:#333333;fill-opacity:1" />
      </g>
      <g
         id="g325"
         style="fill:#333333;fill-opacity:1">
        <path
           id="_401641192"
           d="m.267366 1.08323h-.14235c-.0110354 0-.0199961-.0089685-.0199961-.0199961v-.0852598c0-.0110394.00896063-.02.0199961-.02l.14235-.00000394c.0110354 0 .0199961.0089685.0199961.0199961v.0852598c0 .0110354-.00895276.0200039-.0199961.0200039zm-.122354-.0400079h.102358v-.0452598h-.102358z"
           fill="rgb(0,0,0)"
           style="fill:#333333;fill-opacity:1" />
      </g>
    </g>
  </g>
</svg>
